<svg width="70" height="70" viewBox="0 0 70 70" fill="none" xmlns="http://www.w3.org/2000/svg">
<path d="M35 34.9996L16.0417 35L0 18.8462L18.9583 18.8462L35 34.9996Z" fill="#191616"/>
<path d="M35 34.9996L53.9583 35L70 18.8462L51.0417 18.8462L35 34.9996Z" fill="#282C2C"/>
<path d="M35.0004 35L35 53.9583L51.1538 70L51.1538 51.0417L35.0004 35Z" fill="#191616"/>
<path d="M35 35.0004L16.0417 35L0 51.1538L18.9583 51.1538L35 35.0004Z" fill="#191616"/>
<path d="M35.0004 35L35 16.0417L51.1538 0L51.1538 18.9583L35.0004 35Z" fill="#191616"/>
<path d="M35 35.0004L53.9583 35L70 51.1538H51.0417L35 35.0004Z" fill="#282C2C"/>
<path d="M34.9996 35L35 53.9583L18.8462 70L18.8462 51.0417L34.9996 35Z" fill="#282C2C"/>
<path d="M34.9996 35L35 16.0417L18.8462 0L18.8462 18.9583L34.9996 35Z" fill="#282C2C"/>
</svg>
